<?xml version="1.0" encoding="UTF-8"?>
<svg version="1.1" xmlns="http://www.w3.org/2000/svg" width="128" height="128">
<path d="M0 0 C42.24 0 84.48 0 128 0 C128 42.24 128 84.48 128 128 C85.76 128 43.52 128 0 128 C0 85.76 0 43.52 0 0 Z " fill="#FEFEFE" transform="translate(0,0)"/>
<path d="M0 0 C2.9375 2.125 2.9375 2.125 5 5 C5.7425 5.886875 6.485 6.77375 7.25 7.6875 C10.04779917 12.98333414 10.20313005 18.22503697 9.76953125 24.1484375 C9.2529999 32.35446381 10.81417016 36.16674319 16.01953125 42.49609375 C19.64240739 47.07649534 21.5555283 52.07436481 21 58 C17.64379729 56.61122646 15.92701272 55.08322035 14 52 C14 51.34 14 50.68 14 50 C12.02 50.33 10.04 50.66 8 51 C8.99 52.32 9.98 53.64 11 55 C10.505 55.99 10.505 55.99 10 57 C5.13065327 51.36180905 5.13065327 51.36180905 4.1875 48.75 C2.48706103 46.24408994 0.41149532 45.89479906 -2.4609375 45.3203125 C-11.58855582 44.16882834 -18.91609293 44.45176481 -27 49 C-28.32 49.66 -29.64 50.32 -31 51 C-30.34 48.03 -29.68 45.06 -29 42 C-29.66386719 41.80664062 -30.32773437 41.61328125 -31.01171875 41.4140625 C-39.78207381 38.82776801 -39.78207381 38.82776801 -44 37 C-44.33 38.98 -44.66 40.96 -45 43 C-43.35 43.33 -41.7 43.66 -40 44 C-40.66 45.65 -41.32 47.3 -42 49 C-42.99 49 -43.98 49 -45 49 C-44.67 50.32 -44.34 51.64 -44 53 C-45.65 52.67 -47.3 52.34 -49 52 C-49.33 53.98 -49.66 55.96 -50 58 C-45.05 59.98 -45.05 59.98 -40 62 C-40.7734375 63.36125 -40.7734375 63.36125 -41.5625 64.75 C-43.11202529 68.25327457 -43.16649465 68.61462964 -42 72 C-41.00015787 74.35304212 -39.92115826 76.6600097 -38.83984375 78.9765625 C-38 81 -38 81 -38 83 C-37.113125 82.938125 -36.22625 82.87625 -35.3125 82.8125 C-32 83 -32 83 -29.95703125 84.4921875 C-25.50742305 86.76107623 -21.29617294 86.40261178 -16.375 86.3125 C-15.38822266 86.3019458 -14.40144531 86.2913916 -13.38476562 86.28051758 C-0.05857377 86.09340086 -0.05857377 86.09340086 12 81 C14.36702059 77.95202627 14.36702059 77.95202627 16 75 C18.31 75.33 20.62 75.66 23 76 C23.75 78.25 23.75 78.25 24 81 C21.86099362 83.85549508 20.62339268 84.88483509 17.08203125 85.5390625 C16.00308594 85.56742187 14.92414063 85.59578125 13.8125 85.625 C10.04983538 85.74329417 6.67014433 86.04810815 3.046875 87.015625 C-3.71790559 88.61028788 -10.65856299 88.21147257 -17.5625 88.125 C-18.96679047 88.11494735 -20.37108793 88.10582555 -21.77539062 88.09765625 C-25.18377485 88.07423093 -28.591795 88.04142746 -32 88 C-32 88.99 -32 89.98 -32 91 C-47.18761397 91.75622974 -59.27389996 89.51238017 -71 79 C-76.15937759 73.1048503 -76.40762698 68.56374502 -76 61 C-74.92048175 53.44337222 -71.18553468 48.27409121 -67 42 C-62.04524746 34.53240773 -59.13512629 28.12542768 -57.703125 19.2265625 C-56.67933914 14.52852293 -55.07968469 11.21738939 -51.88671875 7.6171875 C-47.76203946 5.30647407 -44.42959545 5.81386425 -39.8125 6.125 C-32.37737398 6.40868453 -26.40343764 5.62246188 -19.4375 3 C-6.92428345 -1.68668443 -6.92428345 -1.68668443 0 0 Z " fill="#4F695F" transform="translate(90,17)"/>
<path d="M0 0 C10.55808656 3.07517084 10.55808656 3.07517084 15 5 C14.125 11.75 14.125 11.75 13 14 C14.546875 12.824375 14.546875 12.824375 16.125 11.625 C23.07284929 6.34463454 30.61770729 6.38764089 39 7 C43.26926073 7.63132553 46.69455069 8.38192994 49.484375 11.83984375 C50.32505977 13.23320091 51.12675243 14.65086972 51.88671875 16.08984375 C52.98232042 18.2413535 52.98232042 18.2413535 55.5625 20 C58.97933136 22.80355393 60.69372282 25.78850528 62 30 C62.30207837 33.36601616 62.2484355 36.63231878 62 40 C61.34 40 60.68 40 60 40 C58.948125 41.3921875 58.948125 41.3921875 57.875 42.8125 C53.61305845 48.11180563 47.85381073 49.04840808 41.3347168 49.80151367 C36.83066113 50.1844267 32.33051614 50.2257259 27.8125 50.25 C26.84119141 50.270625 25.86988281 50.29125 24.86914062 50.3125 C19.63872899 50.34117943 16.3428169 50.2066148 12 47 C10.4840625 46.9690625 10.4840625 46.9690625 8.9375 46.9375 C6 46 6 46 4.80078125 43.7890625 C4.10825594 41.99210091 3.45966754 40.17749535 2.859375 38.34765625 C2.13258308 35.85195042 2.13258308 35.85195042 0 34 C0.41375233 30.89685751 1.56125559 28.87748882 3 26 C-0.3 24.35 -3.6 22.7 -7 21 C-6.67 19.02 -6.34 17.04 -6 15 C-3 15 -3 15 0 16 C-0.33 14.68 -0.66 13.36 -1 12 C-0.01 12 0.98 12 2 12 C1.67 11.01 1.34 10.02 1 9 C1.66 8.34 2.32 7.68 3 7 C1.68 6.67 0.36 6.34 -1 6 C-0.67 4.02 -0.34 2.04 0 0 Z " fill="#AFA8A0" transform="translate(46,54)"/>
<path d="M0 0 C16.91638796 5.16889632 16.91638796 5.16889632 22 12 C22.53252977 15.72770841 22.33732441 18.11452341 21 21.625 C14.78449573 29.00591132 5.24933641 31.86742819 -4 33 C-4.33 33.33 -4.66 33.66 -5 34 C-15.52510442 36.04168767 -26.06259097 36.34389339 -36.75048828 36.31567383 C-39.23384883 36.31252051 -41.71600464 36.3360593 -44.19921875 36.36132812 C-61.80227446 36.43137156 -82.61847055 35.43147212 -97 24 C-97.78375 23.401875 -98.5675 22.80375 -99.375 22.1875 C-101 20 -101 20 -101.5625 16.625 C-100.84867681 12.0248061 -99.30157993 10.22821149 -96 7 C-91.7 4 -91.7 4 -89 4 C-88.91363281 4.79664062 -88.82726562 5.59328125 -88.73828125 6.4140625 C-87.70500653 14.20628102 -86.33935234 18.41256049 -80.12890625 23.546875 C-69.63776954 31.32379102 -57.64513046 32.65020386 -45 33 C-45 32.01 -45 31.02 -45 30 C-44.13834229 29.98018066 -43.27668457 29.96036133 -42.38891602 29.93994141 C-39.15138343 29.86122646 -35.91418509 29.77451628 -32.67700195 29.68261719 C-31.28352927 29.64464703 -29.88996919 29.6097423 -28.49633789 29.578125 C-21.48809178 29.41718932 -14.70656977 29.22431654 -7.8894043 27.45019531 C-3.94458129 26.51024782 0.14383924 26.58929194 4.1796875 26.44140625 C6.98240535 26.20947525 6.98240535 26.20947525 8.8828125 24.71484375 C10.36390678 22.78252499 10.36390678 22.78252499 10 19 C8.35 18.67 6.7 18.34 5 18 C4.9175 16.700625 4.835 15.40125 4.75 14.0625 C4.19661737 8.85905135 2.35320007 4.62978432 0 0 Z " fill="#E1DBC9" transform="translate(103,75)"/>
<path d="M0 0 C4.8080359 3.89840749 7.07533718 8.57958668 8.17578125 14.56640625 C8.41270531 18.56703816 7.62330324 21.59083591 5.3125 24.875 C-0.51231983 30.13710878 -9.26684188 30.06264883 -16.6875 29.875 C-24.09444566 28.91276839 -29.99853846 24.58967188 -34.6875 18.875 C-35.4375 16.1171875 -35.4375 16.1171875 -35.6875 13.875 C-26.70159929 6.17006812 -12.61279204 -5.27977341 0 0 Z " fill="#806262" transform="translate(87.6875,24.125)"/>
<path d="M0 0 C10.55808656 3.07517084 10.55808656 3.07517084 15 5 C14.45806986 10.330123 13.15341447 14.57894042 10.9375 19.4375 C10.65583984 20.07365234 10.37417969 20.70980469 10.08398438 21.36523438 C9.39710188 22.91363051 8.69965593 24.45733357 8 26 C2.67812773 24.78623966 -2.03906272 23.27376292 -7 21 C-6.67 19.02 -6.34 17.04 -6 15 C-3 15 -3 15 0 16 C-0.33 14.68 -0.66 13.36 -1 12 C-0.01 12 0.98 12 2 12 C1.67 11.01 1.34 10.02 1 9 C1.66 8.34 2.32 7.68 3 7 C1.68 6.67 0.36 6.34 -1 6 C-0.67 4.02 -0.34 2.04 0 0 Z " fill="#F0F0EF" transform="translate(46,54)"/>
<path d="M0 0 C2.9375 2.125 2.9375 2.125 5 5 C5.7425 5.886875 6.485 6.77375 7.25 7.6875 C11.53110174 15.791014 9.89817633 25.18405385 9 34 C7.515 33.505 7.515 33.505 6 33 C5.34 33.66 4.68 34.32 4 35 C3.01 35 2.02 35 1 35 C-1.00309329 35.31421071 -3.00371336 35.6451046 -5 36 C-2.53721199 33.53721199 -0.29323018 33.00228745 3 32 C5.27125163 24.92535809 4.96708131 20.24407821 2.23828125 13.34765625 C0.99928734 10.99864886 0.11898134 9.58677207 -2 8 C-4.49443774 7.21201945 -4.49443774 7.21201945 -7.1875 6.8125 C-8.08855469 6.65394531 -8.98960938 6.49539062 -9.91796875 6.33203125 C-10.60503906 6.22246094 -11.29210937 6.11289062 -12 6 C-12 5.67 -12 5.34 -12 5 C-3.18700114 4.55188141 -3.18700114 4.55188141 1 8 C2.3125 10.1875 2.3125 10.1875 3 12 C3 10.68 3 9.36 3 8 C-1.05693345 4.46654184 -5.81337944 4.11486553 -11 4 C-13.39510869 4.18828094 -15.63480179 4.5470897 -18 5 C-18 4.01 -18 3.02 -18 2 C-12.0802632 -0.10479531 -6.26429104 -0.94207168 0 0 Z " fill="#4B5E56" transform="translate(90,17)"/>
<path d="M0 0 C0.33 0.66 0.66 1.32 1 2 C1.99 2 2.98 2 4 2 C9.62768002 8.17229421 14.65467495 15.47479919 15.1875 24 C15.0946875 24.99 15.0946875 24.99 15 26 C11.64379729 24.61122646 9.92701272 23.08322035 8 20 C8 19.34 8 18.68 8 18 C7.34 17.67 6.68 17.34 6 17 C6 16.34 6 15.68 6 15 C5.67 14.34 5.34 13.68 5 13 C3.68 14.32 2.36 15.64 1 17 C-0.75547734 14.3151523 -1.00627277 13.07997785 -0.75 9.8125 C-0.5025 8.884375 -0.255 7.95625 0 7 C0.66 6.67 1.32 6.34 2 6 C1.01 5.01 0.02 4.02 -1 3 C-0.67 2.01 -0.34 1.02 0 0 Z " fill="#586A60" transform="translate(96,49)"/>
<path d="M0 0 C1.60597325 0.45196245 3.20972508 0.91182327 4.8125 1.375 C6.15248047 1.75785156 6.15248047 1.75785156 7.51953125 2.1484375 C10 3 10 3 13 5 C12.76953125 6.86328125 12.76953125 6.86328125 12 9 C10.07421875 10.23046875 10.07421875 10.23046875 7.6875 11.1875 C6.90761719 11.51105469 6.12773438 11.83460937 5.32421875 12.16796875 C3.22789105 12.91841884 1.16979208 13.50844527 -1 14 C-1 13.34 -1 12.68 -1 12 C-0.01 12 0.98 12 2 12 C1.67 11.01 1.34 10.02 1 9 C1.66 8.34 2.32 7.68 3 7 C1.68 6.67 0.36 6.34 -1 6 C-0.67 4.02 -0.34 2.04 0 0 Z " fill="#DDDBD8" transform="translate(46,54)"/>
<path d="M0 0 C2.31 0.33 4.62 0.66 7 1 C7.75 3.25 7.75 3.25 8 6 C6.6875 8.3125 6.6875 8.3125 4 10 C0.63996194 10.33127136 -2.63546928 10.23115097 -6 10 C-4.28564986 6.44774296 -2.22257977 3.25978366 0 0 Z " fill="#4C6459" transform="translate(106,92)"/>
<path d="M0 0 C0.66 0 1.32 0 2 0 C2.66 0.99 3.32 1.98 4 3 C4.66 2.67 5.32 2.34 6 2 C9.42857143 10.42857143 9.42857143 10.42857143 9 15 C5.64379729 13.61122646 3.92701272 12.08322035 2 9 C2 8.34 2 7.68 2 7 C1.34 6.67 0.68 6.34 0 6 C0 4 0 2 0 0 Z " fill="#928773" transform="translate(102,60)"/>
<path d="M0 0 C0.33 0.66 0.66 1.32 1 2 C1.99 2.33 2.98 2.66 4 3 C3.01 3.33 2.02 3.66 1 4 C1.33 6.97 1.66 9.94 2 13 C4.33075929 12.04134491 4.33075929 12.04134491 6 9 C6.99 10.65 7.98 12.3 9 14 C7.02 14.66 5.04 15.32 3 16 C3.99 17.32 4.98 18.64 6 20 C5.67 20.66 5.34 21.32 5 22 C0.03760065 16.27415459 -1.39289792 12.76728956 -1 5 C-0.5 2 -0.5 2 0 0 Z " fill="#424E47" transform="translate(95,52)"/>
<path d="M0 0 C-0.3125 2.375 -0.3125 2.375 -1 5 C-4.4352048 7.29013653 -5.985331 7.17842973 -10 7 C-9.6875 4.625 -9.6875 4.625 -9 2 C-5.5647952 -0.29013653 -4.014669 -0.17842973 0 0 Z " fill="#1F2226" transform="translate(49,28)"/>
<path d="M0 0 C0.33 0 0.66 0 1 0 C1 3.63 1 7.26 1 11 C0.01 10.67 -0.98 10.34 -2 10 C-2.66 10.66 -3.32 11.32 -4 12 C-4.99 12 -5.98 12 -7 12 C-9.00309329 12.31421071 -11.00371336 12.6451046 -13 13 C-11 11 -11 11 -8 10.375 C-4.90552229 9.35916786 -4.90552229 9.35916786 -4.1640625 7.09375 C-3.6758341 5.08423022 -3.32928932 3.04159381 -3 1 C-2.34 1.66 -1.68 2.32 -1 3 C-0.67 2.01 -0.34 1.02 0 0 Z " fill="#3E4942" transform="translate(98,40)"/>
<path d="M0 0 C0.33 0.66 0.66 1.32 1 2 C1.99 2 2.98 2 4 2 C4.99 4.31 5.98 6.62 7 9 C6.01 9.33 5.02 9.66 4 10 C3.67 9.67 3.34 9.34 3 9 C2.01 10.485 2.01 10.485 1 12 C0.34 12 -0.32 12 -1 12 C-0.625 9.5625 -0.625 9.5625 0 7 C0.66 6.67 1.32 6.34 2 6 C1.01 5.01 0.02 4.02 -1 3 C-0.67 2.01 -0.34 1.02 0 0 Z " fill="#C6B080" transform="translate(96,49)"/>
<path d="M0 0 C1.98 0.66 3.96 1.32 6 2 C6 3.32 6 4.64 6 6 C6.66 6.33 7.32 6.66 8 7 C4.70450534 8.72264494 1.66881155 10.29445932 -2 11 C-2 10.34 -2 9.68 -2 9 C-1.01 9 -0.02 9 1 9 C0.67 8.01 0.34 7.02 0 6 C0.66 5.34 1.32 4.68 2 4 C0.68 3.34 -0.64 2.68 -2 2 C-1.34 2 -0.68 2 0 2 C0 1.34 0 0.68 0 0 Z " fill="#D0CECA" transform="translate(47,57)"/>
<path d="M0 0 C2.31 0.33 4.62 0.66 7 1 C7.625 3.3125 7.625 3.3125 8 6 C7.01 7.485 7.01 7.485 6 9 C5.01 8.67 4.02 8.34 3 8 C3.66 8 4.32 8 5 8 C5 6.35 5 4.7 5 3 C3.02 3.33 1.04 3.66 -1 4 C-0.67 2.68 -0.34 1.36 0 0 Z " fill="#505851" transform="translate(106,92)"/>
<path d="M0 0 C7.26153846 -0.61538462 7.26153846 -0.61538462 11 2.5 C11.66 3.325 12.32 4.15 13 5 C12.67 5.99 12.34 6.98 12 8 C11.319375 7.21625 10.63875 6.4325 9.9375 5.625 C6.48691084 2.54149479 4.43433338 1.95642485 0 1 C0 0.67 0 0.34 0 0 Z " fill="#597567" transform="translate(35,86)"/>
<path d="M0 0 C0.66 0 1.32 0 2 0 C3.65 3.3 5.3 6.6 7 10 C3.2397101 8.11985505 2.0313701 7.45332918 0 4 C0 2.68 0 1.36 0 0 Z " fill="#EABD51" transform="translate(102,60)"/>
<path d="M0 0 C0.99 0.33 1.98 0.66 3 1 C2.78515625 2.890625 2.78515625 2.890625 2 5 C-0.06640625 6.046875 -0.06640625 6.046875 -2.5625 6.75 C-3.80193359 7.11351562 -3.80193359 7.11351562 -5.06640625 7.484375 C-6.02353516 7.73960938 -6.02353516 7.73960938 -7 8 C-5.625 6.5 -5.625 6.5 -4 5 C-3.34 5 -2.68 5 -2 5 C-1.34 3.35 -0.68 1.7 0 0 Z " fill="#597266" transform="translate(69,20)"/>
<path d="M0 0 C0.99 0.33 1.98 0.66 3 1 C1.75453595 4.73639216 0.36595047 5.18756513 -3 7 C-3.33 5.68 -3.66 4.36 -4 3 C-2.1875 1.4375 -2.1875 1.4375 0 0 Z " fill="#475951" transform="translate(40,24)"/>
<path d="M0 0 C0 3.39593478 -0.52165948 4.06619881 -2.5 6.6875 C-2.9640625 7.31011719 -3.428125 7.93273437 -3.90625 8.57421875 C-4.2671875 9.04472656 -4.628125 9.51523438 -5 10 C-5 6.58012972 -4.52745657 4.05491313 -3 1 C-2.01 0.67 -1.02 0.34 0 0 Z " fill="#576F63" transform="translate(25,59)"/>
<path d="M0 0 C1.65 1.65 3.3 3.3 5 5 C4.67 5.99 4.34 6.98 4 8 C3.34 6.68 2.68 5.36 2 4 C1.34 4 0.68 4 0 4 C-0.33 4.66 -0.66 5.32 -1 6 C-1.33 5.01 -1.66 4.02 -2 3 C-1.34 2.67 -0.68 2.34 0 2 C0 1.34 0 0.68 0 0 Z " fill="#7E6F50" transform="translate(102,56)"/>
<path d="M0 0 C1.98 0.66 3.96 1.32 6 2 C5.67 2.66 5.34 3.32 5 4 C2.69 3.67 0.38 3.34 -2 3 C-1.34 2.67 -0.68 2.34 0 2 C0 1.34 0 0.68 0 0 Z " fill="#ABA7A1" transform="translate(47,57)"/>
<path d="M0 0 C0.33 0.66 0.66 1.32 1 2 C1.99 2 2.98 2 4 2 C4.33 2.99 4.66 3.98 5 5 C3.35 5 1.7 5 0 5 C-0.5625 3.0625 -0.5625 3.0625 -1 1 C-0.67 0.67 -0.34 0.34 0 0 Z " fill="#8C8173" transform="translate(96,49)"/>
</svg>
